<?xml version="1.0" encoding="UTF-8" standalone="no"?>
<!-- Created with Inkscape (http://www.inkscape.org/) -->

<svg
   width="180mm"
   height="180mm"
   viewBox="0 0 179.99999 180"
   version="1.1"
   id="svg1"
   xml:space="preserve"
   inkscape:version="1.3.2 (091e20e, 2023-11-25, custom)"
   sodipodi:docname="icon.svg"
   inkscape:export-filename="icon.png"
   inkscape:export-xdpi="72.248894"
   inkscape:export-ydpi="72.248894"
   xmlns:inkscape="http://www.inkscape.org/namespaces/inkscape"
   xmlns:sodipodi="http://sodipodi.sourceforge.net/DTD/sodipodi-0.dtd"
   xmlns="http://www.w3.org/2000/svg"
   xmlns:svg="http://www.w3.org/2000/svg"><sodipodi:namedview
     id="namedview1"
     pagecolor="#ffffff"
     bordercolor="#000000"
     borderopacity="0.25"
     inkscape:showpageshadow="2"
     inkscape:pageopacity="0.0"
     inkscape:pagecheckerboard="0"
     inkscape:deskcolor="#d1d1d1"
     inkscape:document-units="mm"
     inkscape:zoom="0.70710678"
     inkscape:cx="124.45079"
     inkscape:cy="246.78027"
     inkscape:window-width="1920"
     inkscape:window-height="1009"
     inkscape:window-x="-8"
     inkscape:window-y="677"
     inkscape:window-maximized="1"
     inkscape:current-layer="layer1"
     inkscape:export-bgcolor="#ffffff00" /><defs
     id="defs1" /><g
     inkscape:label="Camada 1"
     inkscape:groupmode="layer"
     id="layer1"><rect
       style="display:inline;fill:#ffffff;fill-opacity:1;stroke:none;stroke-width:0;stroke-dasharray:none"
       id="rect6"
       width="180"
       height="180"
       x="0"
       y="0"
       ry="22.016596"
       rx="22.099123"
       inkscape:label="rect6" /><path
       id="rect5-1"
       style="display:inline;fill:#09090b;fill-opacity:1;stroke:none;stroke-width:0;stroke-dasharray:none"
       inkscape:label="rect5"
       d="m 59.588768,19.755885 c 5.00638,2.775898 10.46221,5.98202 11.81671,11.835169 -2.85563,0 -4.52888,0.370898 -7.03478,1.75842 -0.41414,-5.562091 -2.31196,-8.810161 -4.78193,-13.593589 z m 61.641152,0 c 0,0 -6.69949,9.666429 -5.1561,13.593589 l -7.03427,-1.75842 c 0.86587,-5.861068 7.35631,-9.26257 12.19037,-11.835169 z m -11.46649,14.803467 c 0.7902,0.06285 1.55261,0.207841 2.28086,0.456859 5.59043,1.911575 2.53748,7.66441 5.90028,12.041102 1.81115,2.35721 6.76593,3.89174 7.64994,7.77176 0.88403,3.880021 -4.24773,8.266824 -4.19798,12.275455 0.18435,9.580731 6.28378,19.034018 -5.6741,23.943653 -9.69805,1.516145 -7.61431,7.698295 -6.60869,16.843529 0.64261,5.84395 0.99653,9.59192 -2.10209,12.43254 -5.0453,4.62521 -10.754032,2.11963 -15.484862,1.92376 -3.99272,-0.16531 -10.10577,2.52153 -15.46323,-2.02625 -2.88921,-2.45256 -3.33376,-7.1273 -3.1454,-10.92342 0.66979,-13.498694 1.76327,-15.629728 -7.1404,-18.420645 -10.6009,-3.322926 -5.69965,-14.849939 -5.24595,-23.773167 0.0742,-4.132653 -4.53872,-7.970126 -4.16707,-11.955086 0.28621,-3.068958 5.74781,-5.769661 7.54278,-8.086978 3.5397,-4.569776 -1.95078,-10.110364 4.66066,-11.911307 6.61144,-1.800942 15.04199,2.660812 22.63711,2.599515 6.12999,-0.04948 13.026712,-3.63129 18.558142,-3.19132 z m -48.558232,0.548025 c 0,4.882496 1.0211,9.554797 -4.22066,11.955087 -0.58584,-1.510007 -1.96142,-3.625045 -1.79605,-5.274228 0.24443,-2.437502 4.15565,-5.370298 6.01671,-6.680859 z m 57.682732,0.351787 c 1.52827,1.52781 5.29988,4.084728 5.5525,6.329072 0.17952,1.594952 -1.30673,3.907406 -2.03562,5.274228 -3.88084,-2.240021 -5.31209,-7.326342 -3.51688,-11.6033 z m 38.53699,16.207865 c 9.93017,3.551308 11.7081,14.960868 7.25063,22.334964 -4.45748,7.374096 -13.54252,12.022537 -25.73947,-1.975025 28.82066,17.10395 25.65273,-30.547901 1.76862,-8.811876 -6.81029,6.197778 -5.94045,16.097871 -15.48578,18.305485 -0.0989,-2.302944 -0.36605,-9.916967 1.05105,-11.765543 13.33735,-17.398319 21.22477,-21.639315 31.15495,-18.088005 z M 26.333858,50.884433 c 8.48495,-1.080206 15.24036,4.669821 26.75165,17.319722 4.20215,4.617802 3.41387,8.977655 2.91123,13.877688 -8.75468,-2.024746 -9.59663,-12.232242 -15.75914,-18.023869 -26.03326,-24.466418 -28.43374,27.416 0.56808,7.968994 -14.10887,16.4351 -28.61563,6.953926 -28.31758,-6.475903 0.18455,-8.315193 5.36082,-13.586426 13.84576,-14.666632 z M 147.57731,91.413358 c 3.53304,-0.150001 7.1458,0.02476 10.35175,1.55188 15.27978,7.278342 12.57186,30.051272 1.40242,38.486402 -11.62749,8.78104 -25.95408,4.23074 -25.95408,-9.30715 0,-4.83355 0.74225,-7.28152 2.04129,-11.79131 -0.22536,29.6267 31.82921,17.89399 22.45942,-4.20111 -5.24828,-12.376096 -23.4058,-4.88305 -36.87985,3.56089 -5.72777,3.58949 -9.60191,-7.45525 -8.44132,-12.721488 7.99078,5.975238 10.94608,1.394573 17.93781,-1.47256 5.19446,-2.130119 11.19414,-3.855552 17.08256,-4.105554 z M 43.174628,93.507321 c 3.00929,1.221017 16.18227,6.095726 19.43763,6.288659 2.35329,0.139464 4.68343,-2.017041 7.16462,-2.736005 1.87402,5.189345 -2.60371,16.015255 -8.21978,12.652985 -6.28676,-3.76378 -22.66552,-9.785499 -30.10861,-8.94724 -20.73925,2.3357 -10.01034,35.29007 7.79305,25.72693 6.56499,-3.5264 7.54324,-9.56958 7.54324,-16.13947 6.06709,8.68454 0.78555,19.08436 -6.09554,23.09021 -6.80056,3.95895 -19.58056,0.25322 -24.32342,-6.02468 -5.39081,-7.13554 -7.15214,-20.7299 -1.17527,-27.38256 6.21861,-6.921742 18.85837,-10.231581 27.98408,-6.528829 z m 28.23085,22.120089 c 0,0 0.35226,4.91534 4.92393,7.25722 0,0 -16.43189,5.5718 -17.11933,15.08228 -0.68745,9.51048 6.43016,15.00293 13.43604,12.90982 7.00589,-2.0931 11.12052,-7.52342 7.20068,-19.77842 7.95541,8.7171 10.30746,19.38229 -1.69757,26.67409 -12.00503,7.2918 -27.52891,-4.07728 -27.34545,-19.07608 0.18345,-14.9988 20.6017,-23.06891 20.6017,-23.06891 z m 40.447672,0 c 0,0 23.37175,11.04797 19.27666,28.4473 -4.09509,17.39933 -19.48718,18.19729 -28.24048,14.15557 -8.753292,-4.04172 -12.135062,-19.86746 0.5225,-27.13197 -2.6673,3.05675 -4.369624,14.01596 0.36928,17.83437 4.7389,3.8184 15.04804,4.99579 18.40264,-6.02589 3.35459,-11.02167 -14.90264,-20.24725 -14.90264,-20.24725 0,0 3.06837,-1.42206 4.57204,-7.03213 z M 21.703023,0 C 9.6794336,0 0,9.6764975 0,21.69644 v 136.6066 C 0,170.32299 9.6794336,180 21.703023,180 H 158.29698 C 170.32057,180 180,170.32299 180,158.30304 V 21.69644 C 180,9.6764975 170.32057,0 158.29698,0 Z" /></g></svg>
