<?xml version="1.0" encoding="UTF-8" standalone="no"?>
<!-- Created with Inkscape (http://www.inkscape.org/) -->

<svg
   width="180mm"
   height="180mm"
   viewBox="0 0 179.99999 180"
   version="1.1"
   id="svg1"
   xml:space="preserve"
   inkscape:version="1.3.2 (091e20e, 2023-11-25, custom)"
   sodipodi:docname="icon.svg"
   xmlns:inkscape="http://www.inkscape.org/namespaces/inkscape"
   xmlns:sodipodi="http://sodipodi.sourceforge.net/DTD/sodipodi-0.dtd"
   xmlns="http://www.w3.org/2000/svg"
   xmlns:svg="http://www.w3.org/2000/svg"><sodipodi:namedview
     id="namedview1"
     pagecolor="#ffffff"
     bordercolor="#000000"
     borderopacity="0.25"
     inkscape:showpageshadow="2"
     inkscape:pageopacity="0.0"
     inkscape:pagecheckerboard="0"
     inkscape:deskcolor="#d1d1d1"
     inkscape:document-units="mm"
     inkscape:zoom="0.70710678"
     inkscape:cx="214.96046"
     inkscape:cy="197.28279"
     inkscape:window-width="1920"
     inkscape:window-height="1009"
     inkscape:window-x="-8"
     inkscape:window-y="677"
     inkscape:window-maximized="1"
     inkscape:current-layer="layer1"
     inkscape:export-bgcolor="#fa69d200" /><defs
     id="defs1" /><g
     inkscape:label="Camada 1"
     inkscape:groupmode="layer"
     id="layer1"><rect
       style="display:inline;fill:#ffffff;fill-opacity:1;stroke:none;stroke-width:0;stroke-dasharray:none"
       id="rect6"
       width="180"
       height="180"
       x="0"
       y="0"
       ry="22.016596"
       rx="22.099123"
       inkscape:label="rect6" /><path
       id="rect5"
       style="display:inline;fill:#0a0a0c;fill-opacity:1;stroke:none;stroke-width:0;stroke-dasharray:none"
       d="M 21.703023,0 C 9.6794336,0 0,9.6764975 0,21.69644 v 136.6066 C 0,170.32299 9.6794336,180 21.703023,180 H 158.29698 C 170.32057,180 180,170.32299 180,158.30304 V 21.69644 C 180,9.6764975 170.32057,0 158.29698,0 Z m 38.618129,16.695195 c 5.00638,2.775898 9.900938,5.046576 11.255443,10.899726 -2.855634,0 -4.528878,0.370898 -7.034781,1.75842 -0.414144,-5.562092 -1.750688,-7.874719 -4.220662,-12.658146 z m 60.144438,0 c 0,0 -5.76405,8.730986 -4.22066,12.658146 l -7.03427,-1.75842 c 0.86587,-5.861069 6.42087,-8.327127 11.25493,-10.899726 z m -10.53105,13.868024 c 0.7902,0.06285 1.55261,0.207841 2.28086,0.456859 5.59043,1.911575 2.53748,7.66441 5.90028,12.041102 1.81115,2.357209 6.76593,3.891739 7.64994,7.771759 0.88403,3.880021 -4.24773,8.266824 -4.19798,12.275455 0.18435,9.580731 6.28378,19.034018 -5.6741,23.943653 -9.69805,1.516145 -7.61431,7.698295 -6.60869,16.843533 0.64261,5.84395 0.99654,9.59193 -2.10209,12.43254 -5.04529,4.62522 -10.754025,2.11963 -15.48486,1.92376 -3.992717,-0.16531 -10.105768,2.52153 -15.463223,-2.02625 -2.889211,-2.45256 -3.333764,-7.1273 -3.145403,-10.92342 0.669793,-13.498698 1.763268,-15.629732 -7.1404,-18.420649 -10.600902,-3.322926 -5.699649,-14.849939 -5.245945,-23.773167 0.07417,-4.132653 -4.538727,-7.970126 -4.167079,-11.955086 0.286219,-3.068958 5.747817,-5.769661 7.542784,-8.086977 3.539697,-4.569776 -1.950783,-10.110364 4.660657,-11.911307 6.611441,-1.800942 15.041995,2.660812 22.637113,2.599515 6.129986,-0.04948 13.026706,-3.63129 18.558136,-3.19132 z m -48.558222,0.548025 c 0,4.882496 1.021092,9.554797 -4.220662,11.955087 -0.585844,-1.510007 -1.961421,-3.625045 -1.796048,-5.274228 0.244422,-2.437502 4.155649,-5.370298 6.01671,-6.680859 z m 57.682722,0.351787 c 1.52827,1.52781 5.29988,4.084728 5.5525,6.329072 0.17952,1.594952 -1.30673,3.907406 -2.03562,5.274228 -3.88084,-2.240021 -5.31209,-7.326342 -3.51688,-11.6033 z m 36.29192,10.782292 c 18.43751,0.0044 7.34988,55.071563 -16.24377,25.785511 28.82066,17.10395 27.36006,-37.039295 2.14279,-10.869852 -6.38949,6.630749 -6.31462,18.155847 -15.85995,20.363461 -0.0989,-2.302944 -0.36605,-9.916967 1.05105,-11.765543 13.33735,-17.398319 22.76405,-23.515034 28.90988,-23.513577 z M 26.130803,45.765767 c 6.397326,0.241367 15.240347,5.043998 26.751639,17.693899 4.202157,4.617802 2.665522,9.164744 2.162883,14.064777 C 46.290649,75.499697 46.009961,63.421314 39.847438,57.629687 14.112215,33.443363 8.4424362,92.369859 40.976796,68.030834 11.625416,102.22159 3.2832066,44.903742 26.130803,45.765767 Z M 147.74842,87.417224 c 3.53304,-0.150001 7.04091,0.267922 10.35175,1.55188 15.16411,7.516363 12.57186,30.051276 1.40242,38.486406 -11.62749,8.78104 -25.95408,4.23074 -25.95408,-9.30715 0,-4.83355 0.74225,-7.28152 2.04129,-11.79131 -0.27231,35.79885 34.63554,17.51981 25.26575,-4.57529 -5.24828,-12.376097 -24.09504,-5.835614 -39.68618,3.93507 -5.72777,3.5895 -9.60191,-7.455253 -8.44132,-12.721492 7.99078,5.97524 10.98882,1.496656 17.93781,-1.47256 5.23544,-2.027315 11.19414,-3.855552 17.08256,-4.105554 z M 37.747927,90.031675 c 5.667909,-0.05244 11.115564,0.915215 14.57808,2.285842 2.997199,1.250396 7.202004,3.289396 10.45737,3.482329 2.353291,0.139464 4.68343,-2.017041 7.164616,-2.736005 1.874017,5.18935 -2.603707,16.015259 -8.219781,12.652989 -6.286762,-3.76378 -20.233373,-9.598401 -27.676455,-8.760157 -24.2910291,2.735729 -14.133869,37.463337 6.670521,26.288207 6.564988,-3.5264 6.233617,-10.31794 6.233617,-16.88783 6.067094,8.68454 0.785554,19.08436 -6.095539,23.09021 -6.800564,3.95895 -18.083849,0.25322 -22.826712,-6.02468 -5.390808,-7.13554 -5.468348,-20.16864 0.508519,-26.821299 4.266589,-4.749002 11.918452,-6.502186 19.205764,-6.569606 z m 33.828668,21.599605 c 0,0 0.352261,4.91534 4.923933,7.25722 0,0 -15.997035,7.16555 -16.051601,16.70188 -0.05457,9.53635 7.420907,12.42112 14.229793,10.47378 6.808884,-1.94733 9.259038,-6.70698 5.339198,-18.96198 7.955402,8.7171 6.886298,20.4049 -3.746146,24.31553 -10.632444,3.91061 -21.875831,-2.87426 -21.861195,-15.91437 0.01619,-14.42683 17.166018,-23.87206 17.166018,-23.87206 z m 40.447665,0 c 0,0 17.68264,9.70306 16.13765,26.17954 -2.3645,11.28791 -11.30819,17.25771 -21.07241,14.83583 -9.764194,-2.42189 -18.035003,-16.97034 -3.50656,-25.54447 -2.6673,3.05675 -7.480071,11.37113 -0.75325,17.2731 6.72682,5.90195 16.92995,3.29971 19.91264,-3.97731 3.62007,-15.65153 -15.29011,-21.73456 -15.29011,-21.73456 0,0 3.06837,-1.42206 4.57204,-7.03213 z" /></g></svg>
