<svg width="1024" height="1024" viewBox="0 0 1024 1024" fill="none" xmlns="http://www.w3.org/2000/svg">
<rect width="1024" height="1024" fill="#0059FE"/>
<path d="M181.257 497.03C189.114 542.582 210.14 585.109 242.143 618.888C261.175 638.973 283.489 655.538 308.087 667.845C340.26 686.012 397.283 698.285 433.935 708.597C517.979 732.242 604.077 762.488 689.856 746.552C683.959 749.655 677.909 752.494 671.724 755.054C582.172 792.427 491.626 759.997 403.659 735.701C371.654 726.861 321.861 716.34 293.768 700.767C272.289 690.217 252.805 676.016 236.186 658.8C198.994 620.26 178.781 568.438 180.057 514.9C180.184 508.912 180.587 502.949 181.257 497.03ZM329.919 277.803C413.643 231.451 510.335 257.846 597.724 277.523C645.116 288.194 719.686 300.881 756.905 332.621C763.104 335.947 772.952 344.334 778.122 349.134C805.273 374.027 825.196 405.787 835.8 441.06C851.565 492.484 845.974 548.092 820.273 595.344C818.523 598.593 814.242 606.227 812.008 609.021C809.968 613.971 802.028 624.167 798.502 628.398C775.783 655.897 746.679 677.41 713.725 691.054C624.173 728.427 533.626 695.997 445.659 671.701C413.654 662.861 363.862 652.34 335.769 636.767C314.29 626.217 294.805 612.016 278.186 594.8C240.994 556.26 220.781 504.438 222.057 450.9C222.835 414.233 233.906 378.522 254.005 347.842C258.346 341.071 265.109 331.38 270.946 325.787C285.02 306.978 309.589 289.06 329.919 277.803ZM697.019 448.448C687.154 443.129 675.117 448.394 671.644 458.555C663.854 481.312 646.242 492.646 622.485 482.451C600.829 473.155 612.136 444.408 583.349 446.596C566.424 454.457 565.087 467.33 572.807 483.324C581.23 500.396 596.108 513.407 614.15 519.471C632.588 525.688 655.026 524.515 672.4 515.669C683.786 509.773 693.335 500.871 700.017 489.929C705.029 480.767 709.856 471.324 706.84 460.566C705.346 455.359 701.802 450.982 697.019 448.448ZM496.524 461.233C494.201 451.436 482.922 444.246 473.146 446.858C462.846 449.61 460.272 462.879 455.53 471.093C446.423 486.863 426.101 489.37 410.681 482.095C391.376 472.896 399.591 445.389 374.173 446.495C337.17 458.436 370.485 503.757 392.433 514.741C425.509 531.294 469.405 523.608 488.746 490.813C493.959 481.81 499.086 472.035 496.524 461.233Z" fill="white"/>
</svg>
