<svg width="20" height="21" viewBox="0 0 20 21" fill="none" xmlns="http://www.w3.org/2000/svg">
<g id="Meteor">
<g id="Vector">
<path d="M10.6242 13.0003C10.6242 13.6184 10.4409 14.2226 10.0975 14.7365C9.75415 15.2504 9.26609 15.6509 8.69507 15.8875C8.12405 16.124 7.49572 16.1859 6.88953 16.0653C6.28334 15.9447 5.72652 15.6471 5.28948 15.2101C4.85244 14.773 4.55481 14.2162 4.43423 13.61C4.31366 13.0038 4.37554 12.3755 4.61206 11.8045C4.84859 11.2334 5.24913 10.7454 5.76303 10.402C6.27693 10.0586 6.88112 9.87535 7.49919 9.87535C8.32799 9.87535 9.12285 10.2046 9.7089 10.7906C10.2949 11.3767 10.6242 12.1715 10.6242 13.0003ZM16.432 10.0582L12.682 13.8082C12.5647 13.9254 12.4988 14.0845 12.4988 14.2503C12.4988 14.4162 12.5647 14.5753 12.682 14.6925C12.7993 14.8098 12.9583 14.8757 13.1242 14.8757C13.29 14.8757 13.4491 14.8098 13.5664 14.6925L17.3164 10.9425C17.3744 10.8845 17.4205 10.8155 17.4519 10.7397C17.4834 10.6638 17.4995 10.5825 17.4995 10.5003C17.4995 10.4182 17.4834 10.3369 17.4519 10.261C17.4205 10.1852 17.3744 10.1162 17.3164 10.0582C17.2583 10.0001 17.1894 9.95403 17.1135 9.9226C17.0376 9.89118 16.9563 9.875 16.8742 9.875C16.7921 9.875 16.7107 9.89118 16.6349 9.9226C16.559 9.95403 16.4901 10.0001 16.432 10.0582ZM14.8164 9.06754C14.8744 9.00947 14.9205 8.94053 14.9519 8.86466C14.9834 8.78879 14.9995 8.70747 14.9995 8.62535C14.9995 8.54323 14.9834 8.46191 14.9519 8.38604C14.9205 8.31017 14.8744 8.24123 14.8164 8.18316C14.7583 8.12509 14.6894 8.07903 14.6135 8.0476C14.5376 8.01617 14.4563 8 14.3742 8C14.2921 8 14.2107 8.01617 14.1349 8.0476C14.059 8.07903 13.9901 8.12509 13.932 8.18316L12.057 10.0582C11.9397 10.1754 11.8738 10.3345 11.8738 10.5003C11.8738 10.6662 11.9397 10.8253 12.057 10.9425C12.1743 11.0598 12.3333 11.1257 12.4992 11.1257C12.665 11.1257 12.8241 11.0598 12.9414 10.9425L14.8164 9.06754ZM17.9414 5.05816C17.8833 5.00005 17.8144 4.95395 17.7385 4.9225C17.6627 4.89105 17.5813 4.87486 17.4992 4.87486C17.4171 4.87486 17.3357 4.89105 17.2599 4.9225C17.184 4.95395 17.115 5.00005 17.057 5.05816L15.807 6.30816C15.6897 6.42544 15.6238 6.5845 15.6238 6.75035C15.6238 6.9162 15.6897 7.07526 15.807 7.19254C15.9243 7.30981 16.0833 7.37569 16.2492 7.3757C16.415 7.3757 16.5741 7.30981 16.6914 7.19254L17.9414 5.94254C17.9995 5.88449 18.0456 5.81556 18.077 5.73969C18.1085 5.66381 18.1247 5.58248 18.1247 5.50035C18.1247 5.41821 18.1085 5.33688 18.077 5.26101C18.0456 5.18514 17.9995 5.11621 17.9414 5.05816ZM9.557 8.44254C9.61505 8.50065 9.68398 8.54674 9.75985 8.5782C9.83572 8.60965 9.91705 8.62584 9.99919 8.62584C10.0813 8.62584 10.1627 8.60965 10.2385 8.5782C10.3144 8.54674 10.3833 8.50065 10.4414 8.44254L16.0664 2.81754C16.1244 2.75947 16.1705 2.69053 16.2019 2.61466C16.2334 2.53879 16.2495 2.45747 16.2495 2.37535C16.2495 2.29323 16.2334 2.21191 16.2019 2.13604C16.1705 2.06017 16.1244 1.99123 16.0664 1.93316C16.0083 1.87509 15.9394 1.82903 15.8635 1.7976C15.7876 1.76618 15.7063 1.75 15.6242 1.75C15.5421 1.75 15.4607 1.76618 15.3849 1.7976C15.309 1.82903 15.2401 1.87509 15.182 1.93316L9.557 7.55816C9.49889 7.61621 9.45279 7.68514 9.42134 7.76101C9.38989 7.83688 9.3737 7.91821 9.3737 8.00035C9.3737 8.08248 9.38989 8.16381 9.42134 8.23969C9.45279 8.31556 9.49889 8.38449 9.557 8.44254ZM10.5929 16.0941C9.77242 16.9146 8.65957 17.3756 7.49919 17.3756C6.33881 17.3756 5.22595 16.9146 4.40544 16.0941C3.58492 15.2736 3.12396 14.1607 3.12396 13.0003C3.12396 11.84 3.58492 10.7271 4.40544 9.9066L10.8703 3.44253C10.9284 3.38447 10.9744 3.31553 11.0058 3.23966C11.0373 3.16379 11.0534 3.08247 11.0534 3.00035C11.0534 2.91823 11.0373 2.83691 11.0058 2.76104C10.9744 2.68517 10.9284 2.61623 10.8703 2.55816C10.8122 2.50009 10.7433 2.45403 10.6674 2.4226C10.5915 2.39118 10.5102 2.375 10.4281 2.375C10.346 2.375 10.2647 2.39118 10.1888 2.4226C10.1129 2.45403 10.044 2.50009 9.98591 2.55816L3.52184 9.023C2.99253 9.54377 2.57156 10.1642 2.28322 10.8484C1.99488 11.5327 1.84487 12.2673 1.84184 13.0098C1.83882 13.7524 1.98284 14.4882 2.2656 15.1747C2.54836 15.8613 2.96427 16.4852 3.48932 17.0102C4.01438 17.5353 4.63819 17.9512 5.32479 18.2339C6.01138 18.5167 6.74717 18.6607 7.4897 18.6577C8.23223 18.6547 8.96682 18.5047 9.65109 18.2163C10.3354 17.928 10.9558 17.507 11.4765 16.9777C11.5888 16.8595 11.6505 16.7022 11.6484 16.5392C11.6463 16.3762 11.5806 16.2205 11.4654 16.1053C11.3501 15.99 11.1944 15.9243 11.0314 15.9223C10.8684 15.9202 10.7111 15.9818 10.5929 16.0941Z" fill="black"/>
<path d="M10.6242 13.0003C10.6242 13.6184 10.4409 14.2226 10.0975 14.7365C9.75415 15.2504 9.26609 15.6509 8.69507 15.8875C8.12405 16.124 7.49572 16.1859 6.88953 16.0653C6.28334 15.9447 5.72652 15.6471 5.28948 15.2101C4.85244 14.773 4.55481 14.2162 4.43423 13.61C4.31366 13.0038 4.37554 12.3755 4.61206 11.8045C4.84859 11.2334 5.24913 10.7454 5.76303 10.402C6.27693 10.0586 6.88112 9.87535 7.49919 9.87535C8.32799 9.87535 9.12285 10.2046 9.7089 10.7906C10.2949 11.3767 10.6242 12.1715 10.6242 13.0003ZM16.432 10.0582L12.682 13.8082C12.5647 13.9254 12.4988 14.0845 12.4988 14.2503C12.4988 14.4162 12.5647 14.5753 12.682 14.6925C12.7993 14.8098 12.9583 14.8757 13.1242 14.8757C13.29 14.8757 13.4491 14.8098 13.5664 14.6925L17.3164 10.9425C17.3744 10.8845 17.4205 10.8155 17.4519 10.7397C17.4834 10.6638 17.4995 10.5825 17.4995 10.5003C17.4995 10.4182 17.4834 10.3369 17.4519 10.261C17.4205 10.1852 17.3744 10.1162 17.3164 10.0582C17.2583 10.0001 17.1894 9.95403 17.1135 9.9226C17.0376 9.89118 16.9563 9.875 16.8742 9.875C16.7921 9.875 16.7107 9.89118 16.6349 9.9226C16.559 9.95403 16.4901 10.0001 16.432 10.0582ZM14.8164 9.06754C14.8744 9.00947 14.9205 8.94053 14.9519 8.86466C14.9834 8.78879 14.9995 8.70747 14.9995 8.62535C14.9995 8.54323 14.9834 8.46191 14.9519 8.38604C14.9205 8.31017 14.8744 8.24123 14.8164 8.18316C14.7583 8.12509 14.6894 8.07903 14.6135 8.0476C14.5376 8.01617 14.4563 8 14.3742 8C14.2921 8 14.2107 8.01617 14.1349 8.0476C14.059 8.07903 13.9901 8.12509 13.932 8.18316L12.057 10.0582C11.9397 10.1754 11.8738 10.3345 11.8738 10.5003C11.8738 10.6662 11.9397 10.8253 12.057 10.9425C12.1743 11.0598 12.3333 11.1257 12.4992 11.1257C12.665 11.1257 12.8241 11.0598 12.9414 10.9425L14.8164 9.06754ZM17.9414 5.05816C17.8833 5.00005 17.8144 4.95395 17.7385 4.9225C17.6627 4.89105 17.5813 4.87486 17.4992 4.87486C17.4171 4.87486 17.3357 4.89105 17.2599 4.9225C17.184 4.95395 17.115 5.00005 17.057 5.05816L15.807 6.30816C15.6897 6.42544 15.6238 6.5845 15.6238 6.75035C15.6238 6.9162 15.6897 7.07526 15.807 7.19254C15.9243 7.30981 16.0833 7.37569 16.2492 7.3757C16.415 7.3757 16.5741 7.30981 16.6914 7.19254L17.9414 5.94254C17.9995 5.88449 18.0456 5.81556 18.077 5.73969C18.1085 5.66381 18.1247 5.58248 18.1247 5.50035C18.1247 5.41821 18.1085 5.33688 18.077 5.26101C18.0456 5.18514 17.9995 5.11621 17.9414 5.05816ZM9.557 8.44254C9.61505 8.50065 9.68398 8.54674 9.75985 8.5782C9.83572 8.60965 9.91705 8.62584 9.99919 8.62584C10.0813 8.62584 10.1627 8.60965 10.2385 8.5782C10.3144 8.54674 10.3833 8.50065 10.4414 8.44254L16.0664 2.81754C16.1244 2.75947 16.1705 2.69053 16.2019 2.61466C16.2334 2.53879 16.2495 2.45747 16.2495 2.37535C16.2495 2.29323 16.2334 2.21191 16.2019 2.13604C16.1705 2.06017 16.1244 1.99123 16.0664 1.93316C16.0083 1.87509 15.9394 1.82903 15.8635 1.7976C15.7876 1.76618 15.7063 1.75 15.6242 1.75C15.5421 1.75 15.4607 1.76618 15.3849 1.7976C15.309 1.82903 15.2401 1.87509 15.182 1.93316L9.557 7.55816C9.49889 7.61621 9.45279 7.68514 9.42134 7.76101C9.38989 7.83688 9.3737 7.91821 9.3737 8.00035C9.3737 8.08248 9.38989 8.16381 9.42134 8.23969C9.45279 8.31556 9.49889 8.38449 9.557 8.44254ZM10.5929 16.0941C9.77242 16.9146 8.65957 17.3756 7.49919 17.3756C6.33881 17.3756 5.22595 16.9146 4.40544 16.0941C3.58492 15.2736 3.12396 14.1607 3.12396 13.0003C3.12396 11.84 3.58492 10.7271 4.40544 9.9066L10.8703 3.44253C10.9284 3.38447 10.9744 3.31553 11.0058 3.23966C11.0373 3.16379 11.0534 3.08247 11.0534 3.00035C11.0534 2.91823 11.0373 2.83691 11.0058 2.76104C10.9744 2.68517 10.9284 2.61623 10.8703 2.55816C10.8122 2.50009 10.7433 2.45403 10.6674 2.4226C10.5915 2.39118 10.5102 2.375 10.4281 2.375C10.346 2.375 10.2647 2.39118 10.1888 2.4226C10.1129 2.45403 10.044 2.50009 9.98591 2.55816L3.52184 9.023C2.99253 9.54377 2.57156 10.1642 2.28322 10.8484C1.99488 11.5327 1.84487 12.2673 1.84184 13.0098C1.83882 13.7524 1.98284 14.4882 2.2656 15.1747C2.54836 15.8613 2.96427 16.4852 3.48932 17.0102C4.01438 17.5353 4.63819 17.9512 5.32479 18.2339C6.01138 18.5167 6.74717 18.6607 7.4897 18.6577C8.23223 18.6547 8.96682 18.5047 9.65109 18.2163C10.3354 17.928 10.9558 17.507 11.4765 16.9777C11.5888 16.8595 11.6505 16.7022 11.6484 16.5392C11.6463 16.3762 11.5806 16.2205 11.4654 16.1053C11.3501 15.99 11.1944 15.9243 11.0314 15.9223C10.8684 15.9202 10.7111 15.9818 10.5929 16.0941Z" fill="url(#paint0_linear_2850_16638)"/>
<path d="M10.6242 13.0003C10.6242 13.6184 10.4409 14.2226 10.0975 14.7365C9.75415 15.2504 9.26609 15.6509 8.69507 15.8875C8.12405 16.124 7.49572 16.1859 6.88953 16.0653C6.28334 15.9447 5.72652 15.6471 5.28948 15.2101C4.85244 14.773 4.55481 14.2162 4.43423 13.61C4.31366 13.0038 4.37554 12.3755 4.61206 11.8045C4.84859 11.2334 5.24913 10.7454 5.76303 10.402C6.27693 10.0586 6.88112 9.87535 7.49919 9.87535C8.32799 9.87535 9.12285 10.2046 9.7089 10.7906C10.2949 11.3767 10.6242 12.1715 10.6242 13.0003ZM16.432 10.0582L12.682 13.8082C12.5647 13.9254 12.4988 14.0845 12.4988 14.2503C12.4988 14.4162 12.5647 14.5753 12.682 14.6925C12.7993 14.8098 12.9583 14.8757 13.1242 14.8757C13.29 14.8757 13.4491 14.8098 13.5664 14.6925L17.3164 10.9425C17.3744 10.8845 17.4205 10.8155 17.4519 10.7397C17.4834 10.6638 17.4995 10.5825 17.4995 10.5003C17.4995 10.4182 17.4834 10.3369 17.4519 10.261C17.4205 10.1852 17.3744 10.1162 17.3164 10.0582C17.2583 10.0001 17.1894 9.95403 17.1135 9.9226C17.0376 9.89118 16.9563 9.875 16.8742 9.875C16.7921 9.875 16.7107 9.89118 16.6349 9.9226C16.559 9.95403 16.4901 10.0001 16.432 10.0582ZM14.8164 9.06754C14.8744 9.00947 14.9205 8.94053 14.9519 8.86466C14.9834 8.78879 14.9995 8.70747 14.9995 8.62535C14.9995 8.54323 14.9834 8.46191 14.9519 8.38604C14.9205 8.31017 14.8744 8.24123 14.8164 8.18316C14.7583 8.12509 14.6894 8.07903 14.6135 8.0476C14.5376 8.01617 14.4563 8 14.3742 8C14.2921 8 14.2107 8.01617 14.1349 8.0476C14.059 8.07903 13.9901 8.12509 13.932 8.18316L12.057 10.0582C11.9397 10.1754 11.8738 10.3345 11.8738 10.5003C11.8738 10.6662 11.9397 10.8253 12.057 10.9425C12.1743 11.0598 12.3333 11.1257 12.4992 11.1257C12.665 11.1257 12.8241 11.0598 12.9414 10.9425L14.8164 9.06754ZM17.9414 5.05816C17.8833 5.00005 17.8144 4.95395 17.7385 4.9225C17.6627 4.89105 17.5813 4.87486 17.4992 4.87486C17.4171 4.87486 17.3357 4.89105 17.2599 4.9225C17.184 4.95395 17.115 5.00005 17.057 5.05816L15.807 6.30816C15.6897 6.42544 15.6238 6.5845 15.6238 6.75035C15.6238 6.9162 15.6897 7.07526 15.807 7.19254C15.9243 7.30981 16.0833 7.37569 16.2492 7.3757C16.415 7.3757 16.5741 7.30981 16.6914 7.19254L17.9414 5.94254C17.9995 5.88449 18.0456 5.81556 18.077 5.73969C18.1085 5.66381 18.1247 5.58248 18.1247 5.50035C18.1247 5.41821 18.1085 5.33688 18.077 5.26101C18.0456 5.18514 17.9995 5.11621 17.9414 5.05816ZM9.557 8.44254C9.61505 8.50065 9.68398 8.54674 9.75985 8.5782C9.83572 8.60965 9.91705 8.62584 9.99919 8.62584C10.0813 8.62584 10.1627 8.60965 10.2385 8.5782C10.3144 8.54674 10.3833 8.50065 10.4414 8.44254L16.0664 2.81754C16.1244 2.75947 16.1705 2.69053 16.2019 2.61466C16.2334 2.53879 16.2495 2.45747 16.2495 2.37535C16.2495 2.29323 16.2334 2.21191 16.2019 2.13604C16.1705 2.06017 16.1244 1.99123 16.0664 1.93316C16.0083 1.87509 15.9394 1.82903 15.8635 1.7976C15.7876 1.76618 15.7063 1.75 15.6242 1.75C15.5421 1.75 15.4607 1.76618 15.3849 1.7976C15.309 1.82903 15.2401 1.87509 15.182 1.93316L9.557 7.55816C9.49889 7.61621 9.45279 7.68514 9.42134 7.76101C9.38989 7.83688 9.3737 7.91821 9.3737 8.00035C9.3737 8.08248 9.38989 8.16381 9.42134 8.23969C9.45279 8.31556 9.49889 8.38449 9.557 8.44254ZM10.5929 16.0941C9.77242 16.9146 8.65957 17.3756 7.49919 17.3756C6.33881 17.3756 5.22595 16.9146 4.40544 16.0941C3.58492 15.2736 3.12396 14.1607 3.12396 13.0003C3.12396 11.84 3.58492 10.7271 4.40544 9.9066L10.8703 3.44253C10.9284 3.38447 10.9744 3.31553 11.0058 3.23966C11.0373 3.16379 11.0534 3.08247 11.0534 3.00035C11.0534 2.91823 11.0373 2.83691 11.0058 2.76104C10.9744 2.68517 10.9284 2.61623 10.8703 2.55816C10.8122 2.50009 10.7433 2.45403 10.6674 2.4226C10.5915 2.39118 10.5102 2.375 10.4281 2.375C10.346 2.375 10.2647 2.39118 10.1888 2.4226C10.1129 2.45403 10.044 2.50009 9.98591 2.55816L3.52184 9.023C2.99253 9.54377 2.57156 10.1642 2.28322 10.8484C1.99488 11.5327 1.84487 12.2673 1.84184 13.0098C1.83882 13.7524 1.98284 14.4882 2.2656 15.1747C2.54836 15.8613 2.96427 16.4852 3.48932 17.0102C4.01438 17.5353 4.63819 17.9512 5.32479 18.2339C6.01138 18.5167 6.74717 18.6607 7.4897 18.6577C8.23223 18.6547 8.96682 18.5047 9.65109 18.2163C10.3354 17.928 10.9558 17.507 11.4765 16.9777C11.5888 16.8595 11.6505 16.7022 11.6484 16.5392C11.6463 16.3762 11.5806 16.2205 11.4654 16.1053C11.3501 15.99 11.1944 15.9243 11.0314 15.9223C10.8684 15.9202 10.7111 15.9818 10.5929 16.0941Z" stroke="url(#paint1_linear_2850_16638)" stroke-width="0.3"/>
</g>
</g>
<defs>
<linearGradient id="paint0_linear_2850_16638" x1="1.95109" y1="1.75" x2="21.5698" y2="11.5208" gradientUnits="userSpaceOnUse">
<stop stop-color="#0CF1CA"/>
<stop offset="0.264423" stop-color="#0BD2B0"/>
<stop offset="0.307692" stop-color="#0CF1CA"/>
<stop offset="0.427885" stop-color="#0CF1CA"/>
<stop offset="0.466346" stop-color="#0FAF94"/>
<stop offset="0.591346" stop-color="#0CA288"/>
<stop offset="1" stop-color="#086253"/>
</linearGradient>
<linearGradient id="paint1_linear_2850_16638" x1="1.8418" y1="2.25694" x2="21.3121" y2="11.25" gradientUnits="userSpaceOnUse">
<stop stop-color="white"/>
<stop offset="1" stop-color="white" stop-opacity="0"/>
</linearGradient>
</defs>
</svg>
