<?xml version="1.0" encoding="UTF-8" standalone="no"?>
<!-- Generator: Adobe Illustrator 12.0.0, SVG Export Plug-In . SVG Version: 6.00 Build 51448)  -->
<svg
   xmlns:dc="http://purl.org/dc/elements/1.1/"
   xmlns:cc="http://web.resource.org/cc/"
   xmlns:rdf="http://www.w3.org/1999/02/22-rdf-syntax-ns#"
   xmlns:svg="http://www.w3.org/2000/svg"
   xmlns="http://www.w3.org/2000/svg"
   xmlns:sodipodi="http://sodipodi.sourceforge.net/DTD/sodipodi-0.dtd"
   xmlns:inkscape="http://www.inkscape.org/namespaces/inkscape"
   version="1.0"
   id="Layer_1"
   width="134.24748"
   height="101.99763"
   viewBox="0 0 612.092 560.54"
   overflow="visible"
   enable-background="new 0 0 612.092 560.54"
   xml:space="preserve"
   sodipodi:version="0.32"
   inkscape:version="0.44.1"
   sodipodi:docname="Playstation logo colour.svg"
   sodipodi:docbase="C:\Documents and Settings\Sigurd\Mine dokumenter\Mine bilder"><metadata
   id="metadata20"><rdf:RDF><cc:Work
       rdf:about=""><dc:format>image/svg+xml</dc:format><dc:type
         rdf:resource="http://purl.org/dc/dcmitype/StillImage" /></cc:Work></rdf:RDF></metadata><defs
   id="defs18" /><sodipodi:namedview
   inkscape:window-height="719"
   inkscape:window-width="1024"
   inkscape:pageshadow="2"
   inkscape:pageopacity="0.0"
   guidetolerance="10.0"
   gridtolerance="10.0"
   objecttolerance="10.0"
   borderopacity="1.0"
   bordercolor="#666666"
   pagecolor="#ffffff"
   id="base"
   inkscape:zoom="1.9023033"
   inkscape:cx="145.65542"
   inkscape:cy="98.001689"
   inkscape:window-x="-4"
   inkscape:window-y="-4"
   inkscape:current-layer="g3" />
<g
   id="g3"
   transform="translate(-61.68556,-312.8684)">
	
	<path
   clip-rule="evenodd"
   d="M 395.06807,434.21345 L 394.60021,863.39514 L 279.61012,825.99696 L 279.61012,321.53515 L 426.38841,360.34125 C 520.34231,385.59251 577.83949,434.67697 576.90381,520.70189 C 575.96956,620.75529 529.69221,660.95773 439.47538,634.77658 L 439.47538,437.47977 C 439.47538,413.635 395.06807,412.23866 395.06807,434.21345 L 395.06807,434.21345 z "
   id="path7"
   style="fill:#de0029;fill-opacity:1;fill-rule:evenodd" />
	<path
   clip-rule="evenodd"
   d="M 226.78568,742.76757 L 172.56056,761.00535 C 137.49733,773.16387 107.58489,744.64627 139.83807,732.95128 L 166.01346,723.60717 L 67.381005,692.27665 C 36.994899,702.56663 8.4787729,724.53999 10.3531,755.3983 C 12.223081,786.7187 83.74009,794.20296 138.90381,803.08643 C 190.32031,811.49773 237.06553,806.82349 279.60869,791.86223 L 279.60869,759.60031 L 226.78568,742.76757 L 226.78568,742.76757 z M 395.53446,863.39514 L 496.03688,828.32754 L 394.60021,796.07291 L 394.60021,861.05298 L 395.53446,863.39514 L 395.53446,863.39514 z "
   id="path9"
   style="fill:#f3c202;fill-opacity:1;fill-rule:evenodd" />
	<path
   clip-rule="evenodd"
   d="M 662.91715,769.42531 L 664.78565,768.95457 C 708.72663,753.53123 727.42501,732.01703 722.75363,711.92089 C 715.27373,678.26121 661.51646,660.02348 578.77524,653.9442 C 519.41092,649.73926 460.98092,662.82627 403.95154,682.46035 L 394.60164,685.73681 L 496.97405,717.52794 L 556.80624,697.42166 C 619.44554,685.73681 644.69244,706.30513 584.38808,725.47573 L 554.46981,735.75553 L 662.91715,769.42531 L 662.91715,769.42531 z M 279.61012,620.75529 L 234.26272,636.17869 L 279.61012,650.2057 L 279.61012,620.75529 L 279.61012,620.75529 z "
   id="path11"
   style="fill:#326db3;fill-opacity:1;fill-rule:evenodd" />
	<path
   clip-rule="evenodd"
   d="M 496.03688,828.32754 L 662.91715,769.42531 L 554.46695,735.75553 L 394.60021,790.45575 L 394.60021,796.07291 L 496.03688,828.32754 L 496.03688,828.32754 z M 279.61012,725.00349 L 226.78712,742.76906 L 279.61012,759.60031 L 279.61012,725.00349 L 279.61012,725.00349 z M 394.60021,752.5955 L 394.60021,685.73681 L 496.97262,717.52794 L 394.60021,752.5955 L 394.60021,752.5955 z M 166.01492,723.60717 L 279.60869,682.93251 L 279.60869,650.2057 L 234.26272,636.17869 L 69.718853,691.81461 C 69.250983,691.81461 68.316721,692.27665 67.38246,692.27665 L 166.01492,723.60717 L 166.01492,723.60717 z "
   id="path13"
   style="fill:#00aa9e;fill-opacity:1;fill-rule:evenodd" />
	
</g>
</svg>