<svg xml:space="preserve" viewBox="0 0 667 154.09188544152744" xmlns="http://www.w3.org/2000/svg" id="Ebene_1" version="1.0" width="667" height="154.09188544152744">
<title>PlayStation 3 logo</title>
<g>
	<path d="M421.659,19.551h-82.591c-25.474,0-37.958,15.741-37.958,36.179v62.087c0,12.684-5.989,21.788-18.631,21.788h-72.24&#xA;&#9;&#9;&#9;&#9;c-0.506,0-0.925,0.419-0.925,0.9v12.53c0,0.512,0.419,0.941,0.925,0.941h81.768c25.464,0,37.979-15.67,37.979-36.118V55.73&#xA;&#9;&#9;&#9;&#9;c0-12.694,5.943-21.818,18.657-21.818h73.017c0.573,0,1.023-0.409,1.023-0.921V20.482&#xA;&#9;&#9;&#9;&#9;C422.683,19.991,422.232,19.551,421.659,19.551z"/>
	<path d="M178.54,19.551H19.607c-0.578,0-0.998,0.44-0.998,0.931v12.509c0,0.512,0.419,0.941,0.998,0.941h149.374&#xA;&#9;&#9;&#9;&#9;c12.627,0,18.621,9.104,18.621,21.797c0,12.643-5.994,21.726-18.621,21.726H50.81c-18.351,0-32.2,15.415-32.2,35.862v39.687&#xA;&#9;&#9;&#9;&#9;c0,0.543,0.419,0.973,0.998,0.973h26.927c0.527,0,0.967-0.43,0.967-0.973v-39.687c0-12.612,7.247-21.511,17.762-21.511H178.54&#xA;&#9;&#9;&#9;&#9;c25.423,0,37.887-15.62,37.887-36.067C216.427,35.324,203.963,19.551,178.54,19.551z"/>
	<path d="M636.409,85.086c-0.356-0.399-0.356-1.084,0-1.473c7.917-6.557,11.835-16.438,11.835-27.874&#xA;&#9;&#9;&#9;&#9;c0-20.416-12.438-36.188-37.938-36.188H451.414c-0.542,0-0.94,0.44-0.94,0.972v12.468c0,0.512,0.398,0.941,0.94,0.941h149.35&#xA;&#9;&#9;&#9;&#9;c12.591,0,18.667,9.104,18.667,21.797c0,12.643-6.035,21.726-18.667,21.726h-0.185l-149.165,0.031&#xA;&#9;&#9;&#9;&#9;c-0.542,0-0.94,0.389-0.94,0.961v12.459c0,0.501,0.398,0.9,0.94,0.961h149.35c16.468,0.194,18.636,16.232,18.636,24.436&#xA;&#9;&#9;&#9;&#9;l0.031,1.544c0,12.714-6.076,21.859-18.667,21.859h-149.35c-0.542,0-0.94,0.388-0.94,0.899v12.49c0,0.512,0.398,0.941,0.94,0.941&#xA;&#9;&#9;&#9;&#9;h158.893c25.521,0,37.938-16.939,37.938-36.189v-1.544C648.244,103.968,644.326,92.246,636.409,85.086z"/>
</g>
</svg>
