<svg height="20" viewBox="0 0 32 32" width="20" xmlns="http://www.w3.org/2000/svg">
  <g id="Layer_2" data-name="Layer 2">
    <path
      d="m8.293 22.293-1.293 1.293v-17.631a1 1 0 0 0 -2 0v17.631l-1.293-1.293a1 1 0 0 0 -1.414 1.414l3 3a1 1 0 0 0 1.414 0l3-3a1 1 0 0 0 -1.414-1.414z" />
    <path d="m14 20h12a1 1 0 0 0 0-2h-12a1 1 0 0 0 0 2z" />
    <path d="m29 24h-15a1 1 0 0 0 0 2h15a1 1 0 0 0 0-2z" />
    <path d="m14 14h9a1 1 0 0 0 0-2h-9a1 1 0 0 0 0 2z" />
    <path d="m14 8h5a1 1 0 0 0 0-2h-5a1 1 0 0 0 0 2z" />
  </g>
</svg>
