<?xml version="1.0" encoding="UTF-8" standalone="no"?>
<!-- Created with Inkscape (http://www.inkscape.org/) -->

<svg
   xmlns:dc="http://purl.org/dc/elements/1.1/"
   xmlns:cc="http://creativecommons.org/ns#"
   xmlns:rdf="http://www.w3.org/1999/02/22-rdf-syntax-ns#"
   xmlns:svg="http://www.w3.org/2000/svg"
   xmlns="http://www.w3.org/2000/svg"
   xmlns:sodipodi="http://sodipodi.sourceforge.net/DTD/sodipodi-0.dtd"
   xmlns:inkscape="http://www.inkscape.org/namespaces/inkscape"
   id="svg4136"
   version="1.1"
   inkscape:version="0.91pre4 r13712"
   width="372.36823"
   height="372.57281"
   viewBox="0 0 372.36823 372.57281"
   sodipodi:docname="Xbox Logo.svg">
  <title
     id="title4166">Xbox Logo</title>
  <metadata
     id="metadata4142">
    <rdf:RDF>
      <cc:Work
         rdf:about="">
        <dc:format>image/svg+xml</dc:format>
        <dc:type
           rdf:resource="http://purl.org/dc/dcmitype/StillImage" />
        <dc:title>Xbox Logo</dc:title>
      </cc:Work>
    </rdf:RDF>
  </metadata>
  <defs
     id="defs4140" />
  <sodipodi:namedview
     pagecolor="#ffffff"
     bordercolor="#666666"
     borderopacity="1"
     objecttolerance="10"
     gridtolerance="10"
     guidetolerance="10"
     inkscape:pageopacity="0"
     inkscape:pageshadow="2"
     inkscape:window-width="1920"
     inkscape:window-height="1017"
     id="namedview4138"
     showgrid="false"
     inkscape:zoom="2.2378738"
     inkscape:cx="120.11921"
     inkscape:cy="190.18765"
     inkscape:window-x="-8"
     inkscape:window-y="-8"
     inkscape:window-maximized="1"
     inkscape:current-layer="g4146"
     fit-margin-top="0"
     fit-margin-left="0"
     fit-margin-right="0"
     fit-margin-bottom="0" />
  <g
     id="g4146"
     transform="translate(-1.5706619,12.357467)">
    <path
       style="fill:#000000"
       d="M 169.18811,359.44924 C 140.50497,356.70211 111.4651,346.40125 86.518706,330.1252 65.614374,316.48637 60.893704,310.87967 60.893704,299.69061 c 0,-22.47524 24.711915,-61.84014 66.992496,-106.71584 24.01246,-25.48631 57.46022,-55.36001 61.0775,-54.55105 7.0309,1.57238 63.25048,56.41053 84.29655,82.2252 33.28077,40.82148 48.58095,74.24535 40.808,89.14682 -5.9087,11.32753 -42.57224,33.4669 -69.50775,41.97242 -22.19984,7.01011 -51.35538,9.9813 -75.37239,7.68108 z M 32.660004,276.3228 C 15.288964,249.67326 6.5125436,223.43712 2.2752336,185.49086 c -1.39917002,-12.53 -0.89778,-19.69701 3.17715,-45.41515 5.0788204,-32.05404 23.3330104,-69.136381 45.2671304,-91.957616 9.34191,-9.719732 10.17624,-9.956543 21.56341,-6.120482 13.828357,4.658436 28.595936,14.857457 51.498366,35.56661 l 13.36254,12.082873 -7.2969,8.96431 C 95.97448,140.22403 60.217254,199.2085 46.741444,235.70071 c -7.32599,19.83862 -10.28084,39.75281 -7.12868,48.04363 2.12818,5.59752 0.17339,3.51093 -6.95276,-7.42154 z m 304.915426,4.53255 c 1.71605,-8.37719 -0.4544,-23.76257 -5.5413,-39.28002 -11.01667,-33.60598 -47.83964,-96.12421 -81.65282,-138.63054 L 239.73699,89.563875 251.25285,78.989784 c 15.03631,-13.806637 25.47602,-22.073835 36.74025,-29.094513 8.88881,-5.540156 21.59109,-10.444558 27.05113,-10.444558 3.36626,0 15.21723,12.298726 24.78421,25.720611 14.81725,20.787711 25.71782,45.986976 31.24045,72.219686 3.56833,16.9498 3.8657,53.23126 0.57486,70.13935 -2.70068,13.87582 -8.40314,31.87484 -13.9661,44.08195 -4.16823,9.14657 -14.53521,26.91044 -19.0783,32.69074 -2.33569,2.97175 -2.33761,2.96527 -1.02393,-3.4477 z M 172.25917,33.104812 c -15.60147,-7.922671 -39.6696,-16.427164 -52.96493,-18.715209 -4.66097,-0.802124 -12.61193,-1.249474 -17.6688,-0.994114 -10.969613,0.55394 -10.479662,-0.0197 7.11783,-8.3336652 14.63023,-6.912081 26.83386,-10.976696 43.40044,-14.455218 18.6362,-3.9130858 53.66559,-3.9590088 72.00507,-0.0944 19.80818,4.174105 43.13297,12.854085 56.27623,20.9423862 l 3.90633,2.403927 -8.96247,-0.452584 c -17.81002,-0.899366 -43.76575,6.295879 -71.63269,19.857459 -8.40538,4.090523 -15.71788,7.357511 -16.25,7.25997 -0.53211,-0.09754 -7.38426,-3.43589 -15.22701,-7.418555 z"
       id="path4148"
       inkscape:connector-curvature="0" />
  </g>
</svg>
