<svg width="348" height="278" viewBox="0 0 348 278" fill="none" xmlns="http://www.w3.org/2000/svg">
<path d="M313.2 34.75H178.966C175.786 34.75 172.736 33.4881 170.486 31.2414L142.714 3.50862C140.464 1.26191 137.414 0 134.234 0H34.8C15.486 0 0.174 15.4637 0.174 34.75L0 243.25C0 262.536 15.486 278 34.8 278H313.2C332.514 278 348 262.536 348 243.25V69.5C348 50.2137 332.514 34.75 313.2 34.75ZM295.8 161.75C295.8 168.377 290.427 173.75 283.8 173.75H255.6C248.973 173.75 243.6 179.123 243.6 185.75V213.875C243.6 220.502 238.227 225.875 231.6 225.875H220.8C214.173 225.875 208.8 220.502 208.8 213.875V185.75C208.8 179.123 203.427 173.75 196.8 173.75H168.6C161.973 173.75 156.6 168.377 156.6 161.75V151C156.6 144.373 161.973 139 168.6 139H196.8C203.427 139 208.8 133.627 208.8 127V98.875C208.8 92.2476 214.173 86.875 220.8 86.875H231.6C238.227 86.875 243.6 92.2476 243.6 98.875V127C243.6 133.627 248.973 139 255.6 139H283.8C290.427 139 295.8 144.373 295.8 151V161.75Z" fill="white"/>
</svg>
